<mxfile host="65bd71144e">
    <diagram id="KjghdthNdIoH8LnnKYAB" name="Page-1">
        <mxGraphModel dx="2161" dy="2001" grid="1" gridSize="10" guides="1" tooltips="1" connect="1" arrows="1" fold="1" page="1" pageScale="1" pageWidth="827" pageHeight="1169" math="0" shadow="0">
            <root>
                <mxCell id="0"/>
                <mxCell id="1" parent="0"/>
                <mxCell id="2" value="Firewalls" style="text;strokeColor=none;align=center;fillColor=none;html=1;verticalAlign=middle;whiteSpace=wrap;rounded=0;fontSize=50;fontStyle=1" vertex="1" parent="1">
                    <mxGeometry x="-543" y="-1150" width="260" height="60" as="geometry"/>
                </mxCell>
                <mxCell id="9" style="edgeStyle=none;html=1;fontSize=50;endArrow=none;endFill=0;" edge="1" parent="1" source="4">
                    <mxGeometry relative="1" as="geometry">
                        <mxPoint x="-715" y="-780" as="targetPoint"/>
                    </mxGeometry>
                </mxCell>
                <mxCell id="4" value="" style="whiteSpace=wrap;html=1;fontSize=50;" vertex="1" parent="1">
                    <mxGeometry x="-790" y="-950" width="150" height="120" as="geometry"/>
                </mxCell>
                <mxCell id="10" style="edgeStyle=none;html=1;fontSize=50;endArrow=none;endFill=0;" edge="1" parent="1" source="5">
                    <mxGeometry relative="1" as="geometry">
                        <mxPoint x="-525" y="-780" as="targetPoint"/>
                    </mxGeometry>
                </mxCell>
                <mxCell id="5" value="" style="whiteSpace=wrap;html=1;fontSize=50;" vertex="1" parent="1">
                    <mxGeometry x="-600" y="-950" width="150" height="120" as="geometry"/>
                </mxCell>
                <mxCell id="11" style="edgeStyle=none;html=1;fontSize=50;endArrow=none;endFill=0;" edge="1" parent="1" source="6">
                    <mxGeometry relative="1" as="geometry">
                        <mxPoint x="-335" y="-780" as="targetPoint"/>
                    </mxGeometry>
                </mxCell>
                <mxCell id="6" value="" style="whiteSpace=wrap;html=1;fontSize=50;" vertex="1" parent="1">
                    <mxGeometry x="-410" y="-950" width="150" height="120" as="geometry"/>
                </mxCell>
                <mxCell id="12" style="edgeStyle=none;html=1;fontSize=50;endArrow=none;endFill=0;" edge="1" parent="1" source="7">
                    <mxGeometry relative="1" as="geometry">
                        <mxPoint x="-135" y="-780" as="targetPoint"/>
                    </mxGeometry>
                </mxCell>
                <mxCell id="7" value="" style="whiteSpace=wrap;html=1;fontSize=50;" vertex="1" parent="1">
                    <mxGeometry x="-210" y="-950" width="150" height="120" as="geometry"/>
                </mxCell>
                <mxCell id="8" value="" style="edgeStyle=none;orthogonalLoop=1;jettySize=auto;html=1;fontSize=50;endArrow=none;endFill=0;" edge="1" parent="1">
                    <mxGeometry width="80" relative="1" as="geometry">
                        <mxPoint x="-780" y="-780" as="sourcePoint"/>
                        <mxPoint x="-70" y="-780" as="targetPoint"/>
                        <Array as="points"/>
                    </mxGeometry>
                </mxCell>
            </root>
        </mxGraphModel>
    </diagram>
    <diagram id="2svTbPf76KLGxqdbL2h_" name="Page-2">
        <mxGraphModel dx="1268" dy="1082" grid="1" gridSize="10" guides="1" tooltips="1" connect="1" arrows="1" fold="1" page="1" pageScale="1" pageWidth="827" pageHeight="1169" math="0" shadow="0">
            <root>
                <mxCell id="0"/>
                <mxCell id="1" parent="0"/>
                <mxCell id="EggRVoT5NFq2q868dil3-1" value="De-capsulation" style="text;strokeColor=none;align=center;fillColor=none;html=1;verticalAlign=middle;whiteSpace=wrap;rounded=0;fontSize=50;fontStyle=1" vertex="1" parent="1">
                    <mxGeometry x="210" y="50" width="390" height="50" as="geometry"/>
                </mxCell>
                <mxCell id="EggRVoT5NFq2q868dil3-2" value="" style="whiteSpace=wrap;html=1;fontSize=50;strokeColor=default;" vertex="1" parent="1">
                    <mxGeometry x="120" y="160" width="590" height="60" as="geometry"/>
                </mxCell>
                <mxCell id="EggRVoT5NFq2q868dil3-3" value="Frame" style="whiteSpace=wrap;html=1;fontSize=22;strokeColor=#FF6666;fontStyle=1" vertex="1" parent="1">
                    <mxGeometry x="610" y="160" width="100" height="60" as="geometry"/>
                </mxCell>
                <mxCell id="EggRVoT5NFq2q868dil3-4" value="Packet" style="whiteSpace=wrap;html=1;fontSize=22;strokeColor=#33FF33;fontStyle=1" vertex="1" parent="1">
                    <mxGeometry x="510" y="160" width="100" height="60" as="geometry"/>
                </mxCell>
                <mxCell id="EggRVoT5NFq2q868dil3-14" style="edgeStyle=none;html=1;fontSize=22;endArrow=classic;endFill=1;strokeColor=#6666FF;" edge="1" parent="1" source="EggRVoT5NFq2q868dil3-5">
                    <mxGeometry relative="1" as="geometry">
                        <mxPoint x="460" y="310" as="targetPoint"/>
                    </mxGeometry>
                </mxCell>
                <mxCell id="EggRVoT5NFq2q868dil3-5" value="Segment" style="whiteSpace=wrap;html=1;fontSize=22;strokeColor=#6666FF;fontStyle=1" vertex="1" parent="1">
                    <mxGeometry x="410" y="160" width="100" height="60" as="geometry"/>
                </mxCell>
                <mxCell id="EggRVoT5NFq2q868dil3-6" value="CRC" style="whiteSpace=wrap;html=1;fontSize=22;strokeColor=#FF6666;fontStyle=1" vertex="1" parent="1">
                    <mxGeometry x="120" y="160" width="60" height="60" as="geometry"/>
                </mxCell>
                <mxCell id="EggRVoT5NFq2q868dil3-7" value="" style="whiteSpace=wrap;html=1;fontSize=50;strokeColor=default;" vertex="1" parent="1">
                    <mxGeometry x="260" y="330" width="390" height="60" as="geometry"/>
                </mxCell>
                <mxCell id="EggRVoT5NFq2q868dil3-12" style="edgeStyle=none;html=1;entryX=0.641;entryY=-0.002;entryDx=0;entryDy=0;entryPerimeter=0;fontSize=22;endArrow=none;endFill=0;" edge="1" parent="1" source="EggRVoT5NFq2q868dil3-8" target="EggRVoT5NFq2q868dil3-11">
                    <mxGeometry relative="1" as="geometry"/>
                </mxCell>
                <mxCell id="EggRVoT5NFq2q868dil3-8" value="" style="whiteSpace=wrap;html=1;fontSize=22;strokeColor=#6666FF;fontStyle=1" vertex="1" parent="1">
                    <mxGeometry x="520" y="330" width="70" height="60" as="geometry"/>
                </mxCell>
                <mxCell id="EggRVoT5NFq2q868dil3-13" style="edgeStyle=none;html=1;fontSize=22;endArrow=none;endFill=0;" edge="1" parent="1" source="EggRVoT5NFq2q868dil3-9" target="EggRVoT5NFq2q868dil3-10">
                    <mxGeometry relative="1" as="geometry"/>
                </mxCell>
                <mxCell id="EggRVoT5NFq2q868dil3-9" value="" style="whiteSpace=wrap;html=1;fontSize=22;strokeColor=#6666FF;fontStyle=1" vertex="1" parent="1">
                    <mxGeometry x="590" y="330" width="60" height="60" as="geometry"/>
                </mxCell>
                <mxCell id="EggRVoT5NFq2q868dil3-10" value="Session ID" style="text;strokeColor=none;align=center;fillColor=none;html=1;verticalAlign=middle;whiteSpace=wrap;rounded=0;fontSize=22;fontStyle=1" vertex="1" parent="1">
                    <mxGeometry x="600" y="270" width="130" height="30" as="geometry"/>
                </mxCell>
                <mxCell id="EggRVoT5NFq2q868dil3-11" value="Port Number" style="text;strokeColor=none;align=center;fillColor=none;html=1;verticalAlign=middle;whiteSpace=wrap;rounded=0;fontSize=22;fontStyle=1" vertex="1" parent="1">
                    <mxGeometry x="430" y="420" width="145" height="30" as="geometry"/>
                </mxCell>
            </root>
        </mxGraphModel>
    </diagram>
    <diagram id="2sm4W_NgAzJhaPMFePth" name="Page-3">
        <mxGraphModel dx="1334" dy="832" grid="1" gridSize="10" guides="1" tooltips="1" connect="1" arrows="1" fold="1" page="1" pageScale="1" pageWidth="827" pageHeight="1169" math="0" shadow="0">
            <root>
                <mxCell id="0"/>
                <mxCell id="1" parent="0"/>
                <mxCell id="8_e49XDfEhmXD4fNm4jB-1" value="UTP/STP" style="text;strokeColor=none;align=center;fillColor=none;html=1;verticalAlign=middle;whiteSpace=wrap;rounded=0;fontSize=50;fontStyle=1" vertex="1" parent="1">
                    <mxGeometry x="370" y="40" width="120" height="30" as="geometry"/>
                </mxCell>
                <mxCell id="8_e49XDfEhmXD4fNm4jB-2" value="Straight" style="text;strokeColor=none;align=center;fillColor=none;html=1;verticalAlign=middle;whiteSpace=wrap;rounded=0;fontSize=30;fontStyle=1" vertex="1" parent="1">
                    <mxGeometry x="90" y="150" width="120" height="30" as="geometry"/>
                </mxCell>
                <mxCell id="8_e49XDfEhmXD4fNm4jB-3" value="Cross" style="text;strokeColor=none;align=center;fillColor=none;html=1;verticalAlign=middle;whiteSpace=wrap;rounded=0;fontSize=30;fontStyle=1" vertex="1" parent="1">
                    <mxGeometry x="340" y="150" width="120" height="30" as="geometry"/>
                </mxCell>
                <mxCell id="8_e49XDfEhmXD4fNm4jB-4" value="1&lt;br&gt;2&lt;br&gt;3&lt;br&gt;4&lt;br&gt;5&lt;br&gt;6&lt;br&gt;7&lt;br&gt;8" style="text;strokeColor=none;align=center;fillColor=none;html=1;verticalAlign=middle;whiteSpace=wrap;rounded=0;fontSize=30;fontStyle=1" vertex="1" parent="1">
                    <mxGeometry x="30" y="230" width="60" height="310" as="geometry"/>
                </mxCell>
                <mxCell id="8_e49XDfEhmXD4fNm4jB-5" value="1&lt;br&gt;2&lt;br&gt;3&lt;br&gt;4&lt;br&gt;5&lt;br&gt;6&lt;br&gt;7&lt;br&gt;8" style="text;strokeColor=none;align=center;fillColor=none;html=1;verticalAlign=middle;whiteSpace=wrap;rounded=0;fontSize=30;fontStyle=1" vertex="1" parent="1">
                    <mxGeometry x="210" y="230" width="60" height="310" as="geometry"/>
                </mxCell>
                <mxCell id="8_e49XDfEhmXD4fNm4jB-6" value="1&lt;br&gt;2&lt;br&gt;3&lt;br&gt;4&lt;br&gt;5&lt;br&gt;6&lt;br&gt;7&lt;br&gt;8" style="text;strokeColor=none;align=center;fillColor=none;html=1;verticalAlign=middle;whiteSpace=wrap;rounded=0;fontSize=30;fontStyle=1" vertex="1" parent="1">
                    <mxGeometry x="474" y="230" width="60" height="310" as="geometry"/>
                </mxCell>
                <mxCell id="8_e49XDfEhmXD4fNm4jB-7" value="1&lt;br&gt;2&lt;br&gt;3&lt;br&gt;4&lt;br&gt;5&lt;br&gt;6&lt;br&gt;7&lt;br&gt;8" style="text;strokeColor=none;align=center;fillColor=none;html=1;verticalAlign=middle;whiteSpace=wrap;rounded=0;fontSize=30;fontStyle=1" vertex="1" parent="1">
                    <mxGeometry x="294" y="230" width="60" height="310" as="geometry"/>
                </mxCell>
                <mxCell id="8_e49XDfEhmXD4fNm4jB-8" value="" style="edgeStyle=none;orthogonalLoop=1;jettySize=auto;html=1;strokeColor=#6666FF;fontSize=30;endArrow=classic;endFill=1;entryX=0.006;entryY=0.307;entryDx=0;entryDy=0;entryPerimeter=0;" edge="1" parent="1" target="8_e49XDfEhmXD4fNm4jB-6">
                    <mxGeometry width="80" relative="1" as="geometry">
                        <mxPoint x="344" y="260" as="sourcePoint"/>
                        <mxPoint x="424" y="260" as="targetPoint"/>
                        <Array as="points"/>
                    </mxGeometry>
                </mxCell>
                <mxCell id="8_e49XDfEhmXD4fNm4jB-9" value="" style="edgeStyle=none;orthogonalLoop=1;jettySize=auto;html=1;strokeColor=#6666FF;fontSize=30;endArrow=classic;endFill=1;entryX=0.006;entryY=0.307;entryDx=0;entryDy=0;entryPerimeter=0;" edge="1" parent="1">
                    <mxGeometry width="80" relative="1" as="geometry">
                        <mxPoint x="343.64" y="290" as="sourcePoint"/>
                        <mxPoint x="473.9999999999999" y="355.16999999999996" as="targetPoint"/>
                        <Array as="points"/>
                    </mxGeometry>
                </mxCell>
                <mxCell id="8_e49XDfEhmXD4fNm4jB-11" value="" style="edgeStyle=none;orthogonalLoop=1;jettySize=auto;html=1;strokeColor=#6666FF;fontSize=30;endArrow=classic;endFill=1;entryX=-0.01;entryY=0.098;entryDx=0;entryDy=0;entryPerimeter=0;" edge="1" parent="1" target="8_e49XDfEhmXD4fNm4jB-6">
                    <mxGeometry width="80" relative="1" as="geometry">
                        <mxPoint x="344" y="370" as="sourcePoint"/>
                        <mxPoint x="424" y="370" as="targetPoint"/>
                        <Array as="points"/>
                    </mxGeometry>
                </mxCell>
                <mxCell id="8_e49XDfEhmXD4fNm4jB-12" value="" style="edgeStyle=none;orthogonalLoop=1;jettySize=auto;html=1;strokeColor=#6666FF;fontSize=30;endArrow=classic;endFill=1;entryX=-0.01;entryY=0.098;entryDx=0;entryDy=0;entryPerimeter=0;" edge="1" parent="1">
                    <mxGeometry width="80" relative="1" as="geometry">
                        <mxPoint x="344.6" y="399.62" as="sourcePoint"/>
                        <mxPoint x="473.9999999999999" y="290" as="targetPoint"/>
                        <Array as="points"/>
                    </mxGeometry>
                </mxCell>
                <mxCell id="8_e49XDfEhmXD4fNm4jB-13" value="" style="edgeStyle=none;orthogonalLoop=1;jettySize=auto;html=1;strokeColor=#6666FF;fontSize=30;endArrow=classic;endFill=1;entryX=0.006;entryY=0.307;entryDx=0;entryDy=0;entryPerimeter=0;" edge="1" parent="1">
                    <mxGeometry width="80" relative="1" as="geometry">
                        <mxPoint x="343.6399999999999" y="330" as="sourcePoint"/>
                        <mxPoint x="474" y="395.16999999999996" as="targetPoint"/>
                        <Array as="points"/>
                    </mxGeometry>
                </mxCell>
                <mxCell id="8_e49XDfEhmXD4fNm4jB-15" value="" style="edgeStyle=none;orthogonalLoop=1;jettySize=auto;html=1;strokeColor=#6666FF;fontSize=30;endArrow=classic;endFill=1;entryX=-0.023;entryY=0.096;entryDx=0;entryDy=0;entryPerimeter=0;" edge="1" parent="1" target="8_e49XDfEhmXD4fNm4jB-5">
                    <mxGeometry width="80" relative="1" as="geometry">
                        <mxPoint x="79.64000000000001" y="260" as="sourcePoint"/>
                        <mxPoint x="209.99999999999991" y="325.16999999999996" as="targetPoint"/>
                        <Array as="points"/>
                    </mxGeometry>
                </mxCell>
                <mxCell id="8_e49XDfEhmXD4fNm4jB-16" value="" style="edgeStyle=none;orthogonalLoop=1;jettySize=auto;html=1;strokeColor=#6666FF;fontSize=30;endArrow=classic;endFill=1;entryX=0;entryY=0.226;entryDx=0;entryDy=0;entryPerimeter=0;" edge="1" parent="1" target="8_e49XDfEhmXD4fNm4jB-5">
                    <mxGeometry width="80" relative="1" as="geometry">
                        <mxPoint x="79.63999999999989" y="300" as="sourcePoint"/>
                        <mxPoint x="210" y="365.16999999999996" as="targetPoint"/>
                        <Array as="points"/>
                    </mxGeometry>
                </mxCell>
                <mxCell id="8_e49XDfEhmXD4fNm4jB-17" value="" style="edgeStyle=none;orthogonalLoop=1;jettySize=auto;html=1;strokeColor=#6666FF;fontSize=30;endArrow=classic;endFill=1;entryX=0.003;entryY=0.438;entryDx=0;entryDy=0;entryPerimeter=0;exitX=1;exitY=0.44;exitDx=0;exitDy=0;exitPerimeter=0;" edge="1" parent="1" target="8_e49XDfEhmXD4fNm4jB-5">
                    <mxGeometry width="80" relative="1" as="geometry">
                        <mxPoint x="80" y="366.4" as="sourcePoint"/>
                        <mxPoint x="200.24" y="366.4" as="targetPoint"/>
                        <Array as="points"/>
                    </mxGeometry>
                </mxCell>
                <mxCell id="8_e49XDfEhmXD4fNm4jB-18" value="" style="edgeStyle=none;orthogonalLoop=1;jettySize=auto;html=1;strokeColor=#6666FF;fontSize=30;endArrow=classic;endFill=1;entryX=-0.01;entryY=0.098;entryDx=0;entryDy=0;entryPerimeter=0;exitX=0.833;exitY=0.548;exitDx=0;exitDy=0;exitPerimeter=0;" edge="1" parent="1" source="8_e49XDfEhmXD4fNm4jB-4">
                    <mxGeometry width="80" relative="1" as="geometry">
                        <mxPoint x="80.59999999999992" y="509.6199999999999" as="sourcePoint"/>
                        <mxPoint x="210" y="400" as="targetPoint"/>
                        <Array as="points"/>
                    </mxGeometry>
                </mxCell>
                <mxCell id="8_e49XDfEhmXD4fNm4jB-19" value="" style="edgeStyle=none;orthogonalLoop=1;jettySize=auto;html=1;strokeColor=#6666FF;fontSize=30;endArrow=classic;endFill=1;entryX=-0.005;entryY=0.32;entryDx=0;entryDy=0;entryPerimeter=0;" edge="1" parent="1" target="8_e49XDfEhmXD4fNm4jB-5">
                    <mxGeometry width="80" relative="1" as="geometry">
                        <mxPoint x="79.63999999999989" y="330" as="sourcePoint"/>
                        <mxPoint x="210" y="395.1700000000001" as="targetPoint"/>
                        <Array as="points"/>
                    </mxGeometry>
                </mxCell>
                <mxCell id="8_e49XDfEhmXD4fNm4jB-20" value="" style="edgeStyle=none;orthogonalLoop=1;jettySize=auto;html=1;strokeColor=#6666FF;fontSize=30;endArrow=classic;endFill=1;entryX=-0.023;entryY=0.096;entryDx=0;entryDy=0;entryPerimeter=0;" edge="1" parent="1">
                    <mxGeometry width="80" relative="1" as="geometry">
                        <mxPoint x="79.45999999999998" y="440.24" as="sourcePoint"/>
                        <mxPoint x="208.44" y="440" as="targetPoint"/>
                        <Array as="points"/>
                    </mxGeometry>
                </mxCell>
                <mxCell id="8_e49XDfEhmXD4fNm4jB-21" value="" style="edgeStyle=none;orthogonalLoop=1;jettySize=auto;html=1;strokeColor=#6666FF;fontSize=30;endArrow=classic;endFill=1;entryX=0;entryY=0.226;entryDx=0;entryDy=0;entryPerimeter=0;" edge="1" parent="1">
                    <mxGeometry width="80" relative="1" as="geometry">
                        <mxPoint x="79.45999999999987" y="480.24" as="sourcePoint"/>
                        <mxPoint x="209.82" y="480.30000000000007" as="targetPoint"/>
                        <Array as="points"/>
                    </mxGeometry>
                </mxCell>
                <mxCell id="8_e49XDfEhmXD4fNm4jB-24" value="" style="edgeStyle=none;orthogonalLoop=1;jettySize=auto;html=1;strokeColor=#6666FF;fontSize=30;endArrow=classic;endFill=1;entryX=-0.005;entryY=0.32;entryDx=0;entryDy=0;entryPerimeter=0;" edge="1" parent="1">
                    <mxGeometry width="80" relative="1" as="geometry">
                        <mxPoint x="79.45999999999987" y="510.24" as="sourcePoint"/>
                        <mxPoint x="209.51999999999992" y="509.43999999999994" as="targetPoint"/>
                        <Array as="points"/>
                    </mxGeometry>
                </mxCell>
                <mxCell id="8_e49XDfEhmXD4fNm4jB-25" value="" style="whiteSpace=wrap;html=1;strokeColor=default;fontSize=30;" vertex="1" parent="1">
                    <mxGeometry x="150" y="620" width="190" height="270" as="geometry"/>
                </mxCell>
                <mxCell id="8_e49XDfEhmXD4fNm4jB-27" value="Routers" style="whiteSpace=wrap;html=1;strokeColor=default;fontSize=30;fontStyle=1" vertex="1" parent="1">
                    <mxGeometry x="160" y="630" width="170" height="80" as="geometry"/>
                </mxCell>
                <mxCell id="8_e49XDfEhmXD4fNm4jB-28" value="Hosts" style="whiteSpace=wrap;html=1;strokeColor=default;fontSize=30;fontStyle=1" vertex="1" parent="1">
                    <mxGeometry x="160" y="780" width="170" height="80" as="geometry"/>
                </mxCell>
                <mxCell id="8_e49XDfEhmXD4fNm4jB-29" value="" style="whiteSpace=wrap;html=1;strokeColor=default;fontSize=30;" vertex="1" parent="1">
                    <mxGeometry x="430" y="620" width="190" height="270" as="geometry"/>
                </mxCell>
                <mxCell id="8_e49XDfEhmXD4fNm4jB-30" value="HUB" style="whiteSpace=wrap;html=1;strokeColor=default;fontSize=30;fontStyle=1" vertex="1" parent="1">
                    <mxGeometry x="440" y="630" width="170" height="80" as="geometry"/>
                </mxCell>
                <mxCell id="8_e49XDfEhmXD4fNm4jB-31" value="Switches" style="whiteSpace=wrap;html=1;strokeColor=default;fontSize=30;fontStyle=1" vertex="1" parent="1">
                    <mxGeometry x="440" y="780" width="170" height="80" as="geometry"/>
                </mxCell>
                <mxCell id="8_e49XDfEhmXD4fNm4jB-32" value="" style="edgeStyle=none;orthogonalLoop=1;jettySize=auto;html=1;strokeColor=#6666FF;fontSize=30;endArrow=classic;endFill=1;" edge="1" parent="1">
                    <mxGeometry width="80" relative="1" as="geometry">
                        <mxPoint x="186" y="715" as="sourcePoint"/>
                        <mxPoint x="185.73" y="775" as="targetPoint"/>
                        <Array as="points"/>
                    </mxGeometry>
                </mxCell>
                <mxCell id="8_e49XDfEhmXD4fNm4jB-33" value="" style="edgeStyle=none;orthogonalLoop=1;jettySize=auto;html=1;strokeColor=#6666FF;fontSize=30;endArrow=classic;endFill=1;" edge="1" parent="1">
                    <mxGeometry width="80" relative="1" as="geometry">
                        <mxPoint x="300.27" y="716" as="sourcePoint"/>
                        <mxPoint x="300" y="776" as="targetPoint"/>
                        <Array as="points"/>
                    </mxGeometry>
                </mxCell>
                <mxCell id="8_e49XDfEhmXD4fNm4jB-34" value="" style="edgeStyle=none;orthogonalLoop=1;jettySize=auto;html=1;strokeColor=#6666FF;fontSize=30;endArrow=classic;endFill=1;" edge="1" parent="1">
                    <mxGeometry width="80" relative="1" as="geometry">
                        <mxPoint x="430" y="670" as="sourcePoint"/>
                        <mxPoint x="340" y="670" as="targetPoint"/>
                        <Array as="points"/>
                    </mxGeometry>
                </mxCell>
                <mxCell id="8_e49XDfEhmXD4fNm4jB-35" value="" style="edgeStyle=none;orthogonalLoop=1;jettySize=auto;html=1;strokeColor=#6666FF;fontSize=30;endArrow=classic;endFill=1;" edge="1" parent="1">
                    <mxGeometry width="80" relative="1" as="geometry">
                        <mxPoint x="430" y="800" as="sourcePoint"/>
                        <mxPoint x="340" y="800" as="targetPoint"/>
                        <Array as="points"/>
                    </mxGeometry>
                </mxCell>
                <mxCell id="8_e49XDfEhmXD4fNm4jB-36" value="" style="edgeStyle=none;orthogonalLoop=1;jettySize=auto;html=1;strokeColor=#6666FF;fontSize=30;endArrow=classic;endFill=1;entryX=1.009;entryY=0.291;entryDx=0;entryDy=0;entryPerimeter=0;exitX=-0.015;exitY=0.575;exitDx=0;exitDy=0;exitPerimeter=0;" edge="1" parent="1" source="8_e49XDfEhmXD4fNm4jB-29" target="8_e49XDfEhmXD4fNm4jB-25">
                    <mxGeometry width="80" relative="1" as="geometry">
                        <mxPoint x="430" y="790" as="sourcePoint"/>
                        <mxPoint x="340" y="790" as="targetPoint"/>
                        <Array as="points"/>
                    </mxGeometry>
                </mxCell>
                <mxCell id="8_e49XDfEhmXD4fNm4jB-37" value="" style="edgeStyle=none;orthogonalLoop=1;jettySize=auto;html=1;strokeColor=#6666FF;fontSize=30;endArrow=classic;endFill=1;entryX=-0.008;entryY=0.274;entryDx=0;entryDy=0;entryPerimeter=0;exitX=1.011;exitY=0.579;exitDx=0;exitDy=0;exitPerimeter=0;" edge="1" parent="1" source="8_e49XDfEhmXD4fNm4jB-25" target="8_e49XDfEhmXD4fNm4jB-29">
                    <mxGeometry width="80" relative="1" as="geometry">
                        <mxPoint x="440" y="800" as="sourcePoint"/>
                        <mxPoint x="351.71000000000004" y="708.5699999999999" as="targetPoint"/>
                        <Array as="points"/>
                    </mxGeometry>
                </mxCell>
                <mxCell id="8_e49XDfEhmXD4fNm4jB-38" value="" style="edgeStyle=none;orthogonalLoop=1;jettySize=auto;html=1;strokeColor=#6666FF;fontSize=30;endArrow=classic;endFill=1;" edge="1" parent="1">
                    <mxGeometry width="80" relative="1" as="geometry">
                        <mxPoint x="460.27" y="712" as="sourcePoint"/>
                        <mxPoint x="459.9999999999999" y="772" as="targetPoint"/>
                        <Array as="points"/>
                    </mxGeometry>
                </mxCell>
                <mxCell id="8_e49XDfEhmXD4fNm4jB-39" value="" style="edgeStyle=none;orthogonalLoop=1;jettySize=auto;html=1;strokeColor=#6666FF;fontSize=30;endArrow=classic;endFill=1;" edge="1" parent="1">
                    <mxGeometry width="80" relative="1" as="geometry">
                        <mxPoint x="574.5400000000001" y="713" as="sourcePoint"/>
                        <mxPoint x="574.27" y="773" as="targetPoint"/>
                        <Array as="points"/>
                    </mxGeometry>
                </mxCell>
                <mxCell id="8_e49XDfEhmXD4fNm4jB-40" value="Uplinks" style="whiteSpace=wrap;html=1;strokeColor=default;fontSize=30;fontStyle=1" vertex="1" parent="1">
                    <mxGeometry x="185" y="870" width="120" height="60" as="geometry"/>
                </mxCell>
                <mxCell id="8_e49XDfEhmXD4fNm4jB-41" value="Cross-cables" style="text;strokeColor=none;align=center;fillColor=none;html=1;verticalAlign=middle;whiteSpace=wrap;rounded=0;fontSize=12;fontStyle=1" vertex="1" parent="1">
                    <mxGeometry x="190" y="730" width="90" height="30" as="geometry"/>
                </mxCell>
                <mxCell id="8_e49XDfEhmXD4fNm4jB-42" value="Cross-cables" style="text;strokeColor=none;align=center;fillColor=none;html=1;verticalAlign=middle;whiteSpace=wrap;rounded=0;fontSize=12;fontStyle=1" vertex="1" parent="1">
                    <mxGeometry x="470" y="730" width="90" height="30" as="geometry"/>
                </mxCell>
                <mxCell id="8_e49XDfEhmXD4fNm4jB-43" value="Straight-cables" style="text;strokeColor=none;align=center;fillColor=none;html=1;verticalAlign=middle;whiteSpace=wrap;rounded=0;fontSize=12;fontStyle=1" vertex="1" parent="1">
                    <mxGeometry x="340" y="810" width="90" height="20" as="geometry"/>
                </mxCell>
                <mxCell id="8_e49XDfEhmXD4fNm4jB-44" value="Straight-cables" style="text;strokeColor=none;align=center;fillColor=none;html=1;verticalAlign=middle;whiteSpace=wrap;rounded=0;fontSize=12;fontStyle=1" vertex="1" parent="1">
                    <mxGeometry x="340" y="640" width="90" height="20" as="geometry"/>
                </mxCell>
                <mxCell id="8_e49XDfEhmXD4fNm4jB-45" value="1&lt;br&gt;2&lt;br&gt;3&lt;br&gt;4&lt;br&gt;5&lt;br&gt;6&lt;br&gt;7&lt;br&gt;8" style="text;strokeColor=none;align=center;fillColor=none;html=1;verticalAlign=middle;whiteSpace=wrap;rounded=0;fontSize=30;fontStyle=1" vertex="1" parent="1">
                    <mxGeometry x="560" y="230" width="60" height="310" as="geometry"/>
                </mxCell>
                <mxCell id="8_e49XDfEhmXD4fNm4jB-46" value="1&lt;br&gt;2&lt;br&gt;3&lt;br&gt;4&lt;br&gt;5&lt;br&gt;6&lt;br&gt;7&lt;br&gt;8" style="text;strokeColor=none;align=center;fillColor=none;html=1;verticalAlign=middle;whiteSpace=wrap;rounded=0;fontSize=30;fontStyle=1" vertex="1" parent="1">
                    <mxGeometry x="740" y="230" width="60" height="310" as="geometry"/>
                </mxCell>
                <mxCell id="8_e49XDfEhmXD4fNm4jB-47" value="Rolled" style="text;strokeColor=none;align=center;fillColor=none;html=1;verticalAlign=middle;whiteSpace=wrap;rounded=0;fontSize=30;fontStyle=1" vertex="1" parent="1">
                    <mxGeometry x="614" y="150" width="120" height="30" as="geometry"/>
                </mxCell>
            </root>
        </mxGraphModel>
    </diagram>
    <diagram id="Sas51wtD-6dHRTkwuWpJ" name="Page-4">
        <mxGraphModel dx="1156" dy="721" grid="1" gridSize="10" guides="1" tooltips="1" connect="1" arrows="1" fold="1" page="1" pageScale="1" pageWidth="827" pageHeight="1169" math="0" shadow="0">
            <root>
                <mxCell id="0"/>
                <mxCell id="1" parent="0"/>
                <mxCell id="RTLuA8qdtsRkWrPASxc1-1" value="DOD" style="text;strokeColor=none;align=center;fillColor=none;html=1;verticalAlign=middle;whiteSpace=wrap;rounded=0;fontSize=50;fontStyle=1" vertex="1" parent="1">
                    <mxGeometry x="728" y="20" width="200" height="60" as="geometry"/>
                </mxCell>
                <mxCell id="RTLuA8qdtsRkWrPASxc1-17" value="Physical/Network Access" style="whiteSpace=wrap;html=1;strokeColor=#d79b00;fontSize=22;fontStyle=1;fillColor=#ffe6cc;" vertex="1" parent="1">
                    <mxGeometry x="210" y="500" width="320" height="120" as="geometry"/>
                </mxCell>
                <mxCell id="RTLuA8qdtsRkWrPASxc1-18" value="Application/Processes" style="whiteSpace=wrap;html=1;strokeColor=#9673a6;fontSize=22;fontStyle=1;fillColor=#e1d5e7;" vertex="1" parent="1">
                    <mxGeometry x="210" y="200" width="320" height="180" as="geometry"/>
                </mxCell>
                <mxCell id="RTLuA8qdtsRkWrPASxc1-19" value="Host-to-Host" style="whiteSpace=wrap;html=1;strokeColor=#b85450;fontSize=22;fontStyle=1;fillColor=#f8cecc;" vertex="1" parent="1">
                    <mxGeometry x="210" y="380" width="320" height="60" as="geometry"/>
                </mxCell>
                <mxCell id="RTLuA8qdtsRkWrPASxc1-20" value="Internet" style="whiteSpace=wrap;html=1;strokeColor=#d6b656;fontSize=22;fontStyle=1;fillColor=#fff2cc;" vertex="1" parent="1">
                    <mxGeometry x="210" y="440" width="320" height="60" as="geometry"/>
                </mxCell>
                <mxCell id="RTLuA8qdtsRkWrPASxc1-21" value="Transport" style="whiteSpace=wrap;html=1;strokeColor=#b85450;fontSize=22;fontStyle=1;fillColor=#f8cecc;" vertex="1" parent="1">
                    <mxGeometry x="1120" y="380" width="320" height="60" as="geometry"/>
                </mxCell>
                <mxCell id="RTLuA8qdtsRkWrPASxc1-22" value="Application" style="whiteSpace=wrap;html=1;strokeColor=#9673a6;fontSize=22;fontStyle=1;fillColor=#e1d5e7;" vertex="1" parent="1">
                    <mxGeometry x="1120" y="200" width="320" height="60" as="geometry"/>
                </mxCell>
                <mxCell id="RTLuA8qdtsRkWrPASxc1-23" value="Presentation" style="whiteSpace=wrap;html=1;strokeColor=#9673a6;fontSize=22;fontStyle=1;fillColor=#e1d5e7;" vertex="1" parent="1">
                    <mxGeometry x="1120" y="260" width="320" height="60" as="geometry"/>
                </mxCell>
                <mxCell id="RTLuA8qdtsRkWrPASxc1-24" value="Session" style="whiteSpace=wrap;html=1;strokeColor=#9673a6;fontSize=22;fontStyle=1;fillColor=#e1d5e7;" vertex="1" parent="1">
                    <mxGeometry x="1120" y="320" width="320" height="60" as="geometry"/>
                </mxCell>
                <mxCell id="RTLuA8qdtsRkWrPASxc1-26" value="Network" style="whiteSpace=wrap;html=1;strokeColor=#d6b656;fontSize=22;fontStyle=1;fillColor=#fff2cc;" vertex="1" parent="1">
                    <mxGeometry x="1120" y="440" width="320" height="60" as="geometry"/>
                </mxCell>
                <mxCell id="RTLuA8qdtsRkWrPASxc1-27" value="Data link&amp;nbsp;" style="whiteSpace=wrap;html=1;strokeColor=#d79b00;fontSize=22;fontStyle=1;fillColor=#ffe6cc;" vertex="1" parent="1">
                    <mxGeometry x="1120" y="500" width="320" height="60" as="geometry"/>
                </mxCell>
                <mxCell id="RTLuA8qdtsRkWrPASxc1-28" value="Physical" style="whiteSpace=wrap;html=1;strokeColor=#d79b00;fontSize=22;fontStyle=1;fillColor=#ffe6cc;" vertex="1" parent="1">
                    <mxGeometry x="1120" y="560" width="320" height="60" as="geometry"/>
                </mxCell>
                <mxCell id="RTLuA8qdtsRkWrPASxc1-30" value="HTTP, HTTPS, FTP, SMTP, Telnet, DNS, DHCP etc." style="whiteSpace=wrap;html=1;strokeColor=default;fontSize=22;fontStyle=1" vertex="1" parent="1">
                    <mxGeometry x="550" y="207" width="560" height="160" as="geometry"/>
                </mxCell>
                <mxCell id="RTLuA8qdtsRkWrPASxc1-31" value="Ethernet" style="whiteSpace=wrap;html=1;strokeColor=default;fontSize=22;fontStyle=1" vertex="1" parent="1">
                    <mxGeometry x="550" y="510" width="560" height="110" as="geometry"/>
                </mxCell>
                <mxCell id="RTLuA8qdtsRkWrPASxc1-32" value="IP, ARP, RARP, BootP, ICNP" style="whiteSpace=wrap;html=1;strokeColor=default;fontSize=22;fontStyle=1" vertex="1" parent="1">
                    <mxGeometry x="548" y="441" width="560" height="50" as="geometry"/>
                </mxCell>
                <mxCell id="RTLuA8qdtsRkWrPASxc1-33" value="TCP/UDP" style="whiteSpace=wrap;html=1;strokeColor=default;fontSize=22;fontStyle=1" vertex="1" parent="1">
                    <mxGeometry x="548" y="380" width="560" height="50" as="geometry"/>
                </mxCell>
            </root>
        </mxGraphModel>
    </diagram>
</mxfile>